# xmcd
#
# Track frame offsets: 
#        150
#        15508
#        26519
#        35856
#        50409
#        69265
#        84655
#        97899
#        110373
#        125417
#        136742
#        148430
#        161240
#        176279
#        189290
#
# Disc length: 2763 seconds
#
# Revision: 0
# Processed by: cddbd v1.5.2PL0 Copyright (c) Steve Scherf et al.
# Submitted via: ExactAudioCopy v0.95b4
#
DISCID=c50ac90f
DTITLE=Various Artist - Soul! Soul! Soul! [CD1]
DYEAR=1900
DGENRE=Soul
TTITLE0=Shirley Bassey - Light My Fire
TTITLE1=Dusty Springfield - Son Of A Preacher Man
TTITLE2=Bill Withers - Ain't No Sunshine
TTITLE3=Al Green - Let's Stay Together
TTITLE4=Aaron neville - Hercules
TTITLE5=Syl Johnson - I Hate I Walked Away
TTITLE6=Ben E. King - Stand By Me
TTITLE7=Bob and Earl - Harlem Shuffle
TTITLE8=Lyn Collins - Think (About It)
TTITLE9=Martha Reeves - Dancing In The Street
TTITLE10=Sam and Dave - Sould Man
TTITLE11=Letta Mbulu - What's Wrong With Groovin
TTITLE12=Peggy Lee - Fever
TTITLE13=Gwen McCrae - 90% Of Me Is You
TTITLE14=Minnie Riperton - Inside My Love
EXTD=
EXTT0=
EXTT1=
EXTT2=
EXTT3=
EXTT4=
EXTT5=
EXTT6=
EXTT7=
EXTT8=
EXTT9=
EXTT10=
EXTT11=
EXTT12=
EXTT13=
EXTT14=
PLAYORDER=
